<?xml version="1.0" encoding="UTF-8"?>
<svg version="1.1" viewBox="0 0 2048 1365" width="1280" height="1280" xmlns="http://www.w3.org/2000/svg">
<path transform="translate(1063,181)" d="m0 0 4 1 5 5 5 3-1 5-19 38-15 33-12 29-11 29-12 37-7 25-9 43-5 31-4 35-2 20-3 56v70l1 24v76l-2 34-4 26-5 21-7 19-9 17-10 14-11 13-11 12-32 32-8 7-11 10-11 9-15 13-11 9-14 12-11 9-14 12-11 9-26 22-10 8-14 12-13 10-1 1 5-1 15-8 28-13 34-16 29-14 20-9 19-10 20-10 24-14 18-11 16-11 12-9 11-9 10-9 16-16 10-14 8-14 9-20 5-15 6-28 4-27 1-9 1-21v-170l3-62 3-35 6-47 5-30 8-37 7-27 9-28 10-27 8-18 12-25 14-24 9-14 11-16 13-17 2-3 4 2 11 9 9 7-1 5-13 20-11 18-12 21-12 23-11 23-11 27-12 36-9 32-7 35-6 39-5 44-1 4 5-3 16-13 14-11 16-13 14-11 15-12 14-11 16-13 14-11 10-8 14-11 16-13 14-11 16-13 13-10 16-13 14-11 5-4 3 1 8 11 11 13 10 13 9 11 14 18 10 12 11 14 13 16 11 14 13 16 11 14 13 16 7 9-1 4-11 7-20 14-31 21-23 16-41 28-44 30-23 16-24 16-11 8-15 10-4 1 4 4 16 11 12 9 14 11 10 9 8 7 13 12 17 17 7 8 10 11 8 10 11 14 10 13 13 18 12 17 11 16 10 15 9 14 16 26 14 24 16 28 12 19 11 15 9 10 8 7 10 4 8-2 11-6 14-11 17-16 4 2 9 11 7 8-2 4-5 5-3 1-2 4-8 7-25 25-8 7-33 33-8 7-21 21h-2v2l-8 7-16 16-4-2-8-8-8-7-8-8-7-8-13-15-11-14-14-19-20-30-12-19-14-24-11-18-4 2-10 11-7 8-36 40-7 8-11 12-9 11-7 7-7 8-11 12-7 8-10 11-7 8-11 12-12 14-6-2-31-15-35-14-20-7-25-8-27-7-29-6-32-5-32-3h-62l-32 3-37 6-33 7-25 7-32 10-32 12-29 12-15 7-4-2-13-17-7-9 2-4 11-8 18-14 14-11 16-13 13-11 11-9 15-14 8-7 15-14 18-18 7-8 9-10 9-11 12-16 12-19 8-15 7-19 3-12 1-7v-17l-4-16-5-12-8-12-7-8-13-10-15-7-9-2h-22l-13 4-8 4-12 9-5 4-4-1-15-6-2-3 9-22 8-14 10-13 6-7 14-11 15-8 12-4 15-3h27l16 3 13 5 16 8 15 10 13 10 2 2v-53l-4-24-5-17-8-18-8-14-10-13-11-12-10-9-15-10-15-7-17-5-14-2h-21l-14 3-15 6-11 7-13 10-17-4-5-2 1-6 8-16 6-11 9-13 11-13 11-10 14-9 15-7 15-4 5-1 23-1 14 1 19 5 19 8 23 12 12 8 3 1v-48l3-28 4-20 6-20 8-20 11-21 13-19 10-13 9-11 12-14 14-15 7-8 47-47 9-7 1-3-25 12-48 19-34 11-24 6-17 3h-35l-45-6-22-3-11-1h-29l-20 3-21 6-12 5-15 9-10 8-13 13-12 17-10 19-7 17-4 1-5-2-19-4-2-1 2-11 6-24 9-25 9-20 9-17 13-20 14-18 8-8 6-7 8-7 17-13 20-12 23-10 20-6 23-4h47l31 4 25 6 36 10 40 8 27 3h19l23-2 17-3 12-4 20-10 15-10 11-8zm168 263-10 8-16 13-13 10-16 13-17 13-12 10-28 22-16 13-14 11-17 13-1 32v140l3 1 19-13 22-15 16-11 44-30 72-49 47-32 16-11 21-14-2-4-26-32-8-10-14-17-11-14-14-17-11-14-13-16zm-159 330-3 26-2 17-4 22-5 19-7 21-12 25-12 18-8 10-9 10-7 8-13 12-15 13-18 13-5 5 56 2 36 3 28 4 26 5 28 8 25 9 25 11 21 10 6 3 14-15 7-8 24-26 7-8 12-13 11-12 5-6-2-5-9-15-20-30-14-19-13-16-12-14-25-25-11-9-17-13-18-11-23-12-25-10-20-7z" fill="#020202"/>
</svg>
